<svg width="606" height="633" viewBox="0 0 606 633" fill="none" xmlns="http://www.w3.org/2000/svg">
<g filter="url(#filter0_d_3211_44)">
<path d="M292 0C369.443 0 443.715 27.8201 498.475 77.3401C553.236 126.86 584 194.024 584 264.056V518C584 556.66 552.66 588 514 588H70C31.3401 588 0 556.66 0 518V264.056C0 194.024 30.7642 126.86 85.5248 77.3401C140.285 27.8201 214.557 0 292 0Z" fill="#EE6436"/>
<path d="M292 7C367.801 7 440.374 34.2369 493.78 82.5322C547.163 130.806 577 196.121 577 264.056V518C577 552.794 548.794 581 514 581H70C35.2061 581 7 552.794 7 518V264.056C7 196.121 36.8368 130.806 90.2197 82.5322C143.626 34.2369 216.199 7 292 7Z" stroke="#19154A" stroke-width="14"/>
</g>
<g filter="url(#filter1_d_3211_44)">
<path d="M312.87 118.307L311.687 117.418C311.213 117.062 310.799 116.706 310.326 116.41L308.788 115.461L307.545 114.75C307.013 114.454 306.48 114.216 305.948 113.979C305.415 113.742 305.06 113.564 304.587 113.327L303.049 112.793C302.516 112.793 302.043 112.378 301.57 112.26C301.025 112.094 300.472 111.955 299.913 111.845C299.427 111.698 298.933 111.58 298.434 111.489C297.77 111.337 297.098 111.218 296.422 111.133H295.239C293.054 110.956 290.857 110.956 288.672 111.133H287.43C286.779 111.133 286.128 111.133 285.477 111.489C284.958 111.579 284.445 111.698 283.939 111.845C283.4 111.955 282.866 112.094 282.342 112.26C281.836 112.402 281.342 112.58 280.862 112.793L279.265 113.327L277.904 113.979C277.374 114.2 276.86 114.458 276.366 114.75L275.064 115.461C274.591 115.461 274.059 116.054 273.585 116.41C273.108 116.713 272.654 117.05 272.225 117.418L270.982 118.307C270.154 119.019 269.326 119.73 268.556 120.501L163.423 225.856C157.334 232.097 153.949 240.494 154.001 249.222C154.053 257.95 157.539 266.305 163.701 272.473C169.864 278.641 178.206 282.124 186.916 282.165C195.626 282.207 204.001 278.803 210.221 272.693L258.854 223.899V443.858C258.854 452.648 262.338 461.077 268.54 467.293C274.743 473.508 283.155 477 291.926 477C300.697 477 309.109 473.508 315.312 467.293C321.514 461.077 324.998 452.648 324.998 443.858V223.899L373.69 272.693C376.715 275.959 380.366 278.58 384.425 280.399C388.484 282.218 392.868 283.199 397.313 283.281C401.759 283.364 406.176 282.548 410.3 280.881C414.423 279.214 418.169 276.731 421.313 273.58C424.458 270.429 426.935 266.675 428.599 262.543C430.262 258.411 431.077 253.984 430.994 249.529C430.912 245.074 429.933 240.682 428.118 236.614C426.303 232.546 423.687 228.887 420.429 225.856L315.295 120.501C314.529 119.725 313.719 118.992 312.87 118.307Z" fill="#FFDD94"/>
<path d="M161 249.18C160.959 242.291 163.632 235.666 168.434 230.744L273.512 125.445C274.011 124.945 274.574 124.453 275.324 123.808L276.299 123.109L276.55 122.931L276.782 122.73C276.957 122.58 277.144 122.442 277.339 122.318L277.571 122.171L277.791 122.006C277.873 121.944 277.951 121.88 278.026 121.82L278.422 121.604L279.724 120.893L279.826 120.836L279.928 120.776C280.143 120.649 280.368 120.536 280.599 120.439L280.767 120.37L280.93 120.292L281.898 119.828L283.08 119.433L283.399 119.326L283.708 119.189C283.879 119.114 284.054 119.05 284.234 118.999L284.344 118.968L284.452 118.934C284.745 118.841 285.043 118.764 285.344 118.702L285.618 118.646L285.888 118.568C286.148 118.493 286.412 118.431 286.679 118.385L287.818 118.187L287.914 118.134H288.956L289.239 118.11C291.047 117.963 292.864 117.963 294.672 118.11L294.955 118.134H295.938C296.25 118.182 296.561 118.241 296.869 118.312L297.026 118.348L297.186 118.377C297.424 118.42 297.66 118.477 297.893 118.547L298.221 118.646L298.558 118.712C298.792 118.758 299.023 118.817 299.254 118.88C299.484 118.991 299.942 119.205 300.515 119.39C300.755 119.467 301.034 119.546 301.346 119.612L301.879 119.798C302.23 119.972 302.612 120.157 303.1 120.374C303.67 120.628 303.922 120.746 304.14 120.867L305.211 121.481L306.61 122.343C306.568 122.317 306.586 122.324 306.742 122.443C306.825 122.507 306.901 122.566 307.035 122.671L307.48 123.014L308.536 123.808C309.157 124.312 309.752 124.849 310.314 125.419L310.327 125.433L310.341 125.445L415.474 230.8L415.565 230.893L415.661 230.98C418.231 233.371 420.293 236.257 421.726 239.467C423.158 242.676 423.93 246.143 423.995 249.659C424.06 253.175 423.418 256.668 422.105 259.929C420.793 263.189 418.838 266.151 416.358 268.636C413.879 271.12 410.926 273.077 407.677 274.391C404.427 275.704 400.946 276.347 397.443 276.282C393.941 276.217 390.487 275.444 387.288 274.011C384.089 272.577 381.211 270.512 378.825 267.937L378.736 267.841L378.645 267.749L329.953 218.955L317.998 206.975V443.857C317.998 450.795 315.248 457.447 310.356 462.349C305.466 467.249 298.836 470 291.926 470C285.016 470 278.386 467.25 273.495 462.349C268.604 457.447 265.854 450.795 265.854 443.857V206.96L253.896 218.958L205.312 267.703C200.408 272.518 193.809 275.197 186.949 275.165C180.088 275.133 173.513 272.389 168.653 267.525C163.793 262.661 161.041 256.069 161 249.18Z" stroke="#26103D" stroke-width="14"/>
</g>
<defs>
<filter id="filter0_d_3211_44" x="0" y="0" width="606" height="633" filterUnits="userSpaceOnUse" color-interpolation-filters="sRGB">
<feFlood flood-opacity="0" result="BackgroundImageFix"/>
<feColorMatrix in="SourceAlpha" type="matrix" values="0 0 0 0 0 0 0 0 0 0 0 0 0 0 0 0 0 0 127 0" result="hardAlpha"/>
<feOffset dx="22" dy="45"/>
<feComposite in2="hardAlpha" operator="out"/>
<feColorMatrix type="matrix" values="0 0 0 0 0.0980392 0 0 0 0 0.0823529 0 0 0 0 0.290196 0 0 0 1 0"/>
<feBlend mode="normal" in2="BackgroundImageFix" result="effect1_dropShadow_3211_44"/>
<feBlend mode="normal" in="SourceGraphic" in2="effect1_dropShadow_3211_44" result="shape"/>
</filter>
<filter id="filter1_d_3211_44" x="154" y="111" width="299" height="411" filterUnits="userSpaceOnUse" color-interpolation-filters="sRGB">
<feFlood flood-opacity="0" result="BackgroundImageFix"/>
<feColorMatrix in="SourceAlpha" type="matrix" values="0 0 0 0 0 0 0 0 0 0 0 0 0 0 0 0 0 0 127 0" result="hardAlpha"/>
<feOffset dx="22" dy="45"/>
<feComposite in2="hardAlpha" operator="out"/>
<feColorMatrix type="matrix" values="0 0 0 0 0.14902 0 0 0 0 0.0627451 0 0 0 0 0.239216 0 0 0 1 0"/>
<feBlend mode="normal" in2="BackgroundImageFix" result="effect1_dropShadow_3211_44"/>
<feBlend mode="normal" in="SourceGraphic" in2="effect1_dropShadow_3211_44" result="shape"/>
</filter>
</defs>
</svg>
